# vtk DataFile Version 2.0
cloth, Created by Gmsh 4.14.0 
ASCII
DATASET UNSTRUCTURED_GRID
POINTS 441 double
0 0 0
1 0 0
1 1 0
0 1 0
0.04999999999989938 0 0
0.09999999999981413 0 0
0.1499999999997028 0 0
0.1999999999995569 0 0
0.2499999999994109 0 0
0.299999999999265 0 0
0.3499999999991191 0 0
0.3999999999989731 0 0
0.4499999999988272 0 0
0.4999999999986921 0 0
0.5499999999988131 0 0
0.599999999998945 0 0
0.6499999999990769 0 0
0.6999999999992088 0 0
0.7499999999993406 0 0
0.7999999999994725 0 0
0.8499999999996044 0 0
0.8999999999997362 0 0
0.9499999999998682 0 0
1 0.04999999999989938 0
1 0.09999999999981413 0
1 0.1499999999997028 0
1 0.1999999999995569 0
1 0.2499999999994109 0
1 0.299999999999265 0
1 0.3499999999991191 0
1 0.3999999999989731 0
1 0.4499999999988272 0
1 0.4999999999986921 0
1 0.5499999999988131 0
1 0.599999999998945 0
1 0.6499999999990769 0
1 0.6999999999992088 0
1 0.7499999999993406 0
1 0.7999999999994725 0
1 0.8499999999996044 0
1 0.8999999999997362 0
1 0.9499999999998682 0
0.9499999999997918 1 0
0.8999999999995836 1 0
0.849999999999653 1 0
0.8 1 0
0.7500000000003471 1 0
0.7000000000006938 1 0
0.6500000000010406 1 0
0.6000000000013874 1 0
0.5500000000017343 1 0
0.5000000000020595 1 0
0.450000000001873 1 0
0.400000000001665 1 0
0.3500000000014568 1 0
0.3000000000012487 1 0
0.2500000000010406 1 0
0.2000000000008325 1 0
0.1500000000006244 1 0
0.1000000000004162 1 0
0.0500000000002081 1 0
0 0.9499999999997918 0
0 0.8999999999995836 0
0 0.849999999999653 0
0 0.8 0
0 0.7500000000003471 0
0 0.7000000000006938 0
0 0.6500000000010406 0
0 0.6000000000013874 0
0 0.5500000000017343 0
0 0.5000000000020595 0
0 0.450000000001873 0
0 0.400000000001665 0
0 0.3500000000014568 0
0 0.3000000000012487 0
0 0.2500000000010406 0
0 0.2000000000008325 0
0 0.1500000000006244 0
0 0.1000000000004162 0
0 0.0500000000002081 0
0.04999999999991481 0.05000000000019265 0
0.04999999999993025 0.1000000000003861 0
0.04999999999994568 0.1500000000005783 0
0.04999999999996113 0.2000000000007687 0
0.04999999999997657 0.2500000000009591 0
0.049999999999992 0.3000000000011495 0
0.05000000000000744 0.3500000000013399 0
0.05000000000002287 0.4000000000015305 0
0.05000000000003831 0.4500000000017206 0
0.05000000000005374 0.5000000000018909 0
0.05000000000006917 0.5500000000015881 0
0.05000000000008462 0.6000000000012653 0
0.05000000000010003 0.6500000000009426 0
0.05000000000011548 0.7000000000006197 0
0.05000000000013093 0.7500000000002967 0
0.05000000000014636 0.7999999999999736 0
0.05000000000016179 0.8499999999996506 0
0.05000000000017722 0.8999999999995911 0
0.05000000000019265 0.9499999999997956 0
0.09999999999984421 0.05000000000017722 0
0.09999999999987436 0.100000000000356 0
0.09999999999990443 0.1500000000005323 0
0.09999999999993453 0.2000000000007049 0
0.09999999999996464 0.2500000000008777 0
0.09999999999999473 0.3000000000010504 0
0.1000000000000248 0.3500000000012231 0
0.100000000000055 0.4000000000013959 0
0.1000000000000851 0.4500000000015684 0
0.1000000000001152 0.5000000000017226 0
0.1000000000001453 0.5500000000014422 0
0.1000000000001754 0.6000000000011431 0
0.1000000000002055 0.6500000000008442 0
0.1000000000002356 0.7000000000005454 0
0.1000000000002657 0.7500000000002464 0
0.1000000000002958 0.7999999999999471 0
0.1000000000003259 0.8499999999996481 0
0.100000000000356 0.8999999999995988 0
0.1000000000003861 0.9499999999997993 0
0.1499999999997489 0.05000000000016178 0
0.149999999999795 0.1000000000003259 0
0.1499999999998411 0.1500000000004862 0
0.1499999999998871 0.2000000000006412 0
0.1499999999999332 0.2500000000007961 0
0.1499999999999793 0.3000000000009512 0
0.1500000000000254 0.3500000000011061 0
0.1500000000000715 0.4000000000012613 0
0.1500000000001175 0.4500000000014162 0
0.1500000000001636 0.5000000000015543 0
0.1500000000002097 0.5500000000012961 0
0.1500000000002558 0.600000000001021 0
0.1500000000003019 0.6500000000007462 0
0.150000000000348 0.7000000000004711 0
0.150000000000394 0.7500000000001961 0
0.1500000000004401 0.7999999999999209 0
0.1500000000004862 0.8499999999996457 0
0.1500000000005323 0.8999999999996066 0
0.1500000000005783 0.9499999999998031 0
0.1999999999996206 0.05000000000014636 0
0.1999999999996844 0.1000000000002958 0
0.1999999999997483 0.1500000000004401 0
0.199999999999812 0.2000000000005774 0
0.1999999999998758 0.2500000000007147 0
0.1999999999999396 0.3000000000008519 0
0.2000000000000033 0.3500000000009892 0
0.2000000000000672 0.4000000000011267 0
0.2000000000001309 0.4500000000012639 0
0.2000000000001947 0.500000000001386 0
0.2000000000002585 0.55000000000115 0
0.2000000000003223 0.6000000000008989 0
0.2000000000003861 0.6500000000006481 0
0.2000000000004498 0.7000000000003967 0
0.2000000000005136 0.7500000000001459 0
0.2000000000005774 0.7999999999998944 0
0.2000000000006412 0.8499999999996432 0
0.2000000000007049 0.8999999999996142 0
0.2000000000007687 0.949999999999807 0
0.2499999999994924 0.05000000000013093 0
0.2499999999995739 0.1000000000002657 0
0.2499999999996554 0.150000000000394 0
0.2499999999997369 0.2000000000005136 0
0.2499999999998185 0.2500000000006332 0
0.2499999999998999 0.3000000000007528 0
0.2499999999999814 0.3500000000008724 0
0.2500000000000628 0.400000000000992 0
0.2500000000001443 0.4500000000011116 0
0.2500000000002258 0.5000000000012177 0
0.2500000000003073 0.5500000000010041 0
0.2500000000003887 0.6000000000007768 0
0.2500000000004702 0.6500000000005497 0
0.2500000000005517 0.7000000000003226 0
0.2500000000006332 0.7500000000000953 0
0.2500000000007147 0.7999999999998683 0
0.2500000000007962 0.849999999999641 0
0.2500000000008777 0.8999999999996218 0
0.2500000000009591 0.9499999999998108 0
0.2999999999993642 0.05000000000011548 0
0.2999999999994634 0.1000000000002356 0
0.2999999999995626 0.1500000000003479 0
0.2999999999996618 0.2000000000004498 0
0.2999999999997609 0.2500000000005516 0
0.29999999999986 0.3000000000006536 0
0.2999999999999593 0.3500000000007554 0
0.3000000000000586 0.4000000000008574 0
0.3000000000001577 0.4500000000009592 0
0.3000000000002568 0.5000000000010494 0
0.3000000000003561 0.550000000000858 0
0.3000000000004552 0.6000000000006547 0
0.3000000000005544 0.6500000000004515 0
0.3000000000006536 0.7000000000002484 0
0.3000000000007528 0.7500000000000451 0
0.3000000000008519 0.7999999999998417 0
0.3000000000009512 0.8499999999996383 0
0.3000000000010503 0.8999999999996293 0
0.3000000000011495 0.9499999999998145 0
0.349999999999236 0.05000000000010005 0
0.3499999999993529 0.1000000000002055 0
0.3499999999994697 0.1500000000003018 0
0.3499999999995866 0.2000000000003861 0
0.3499999999997035 0.2500000000004702 0
0.3499999999998204 0.3000000000005544 0
0.3499999999999373 0.3500000000006386 0
0.3500000000000542 0.4000000000007228 0
0.3500000000001712 0.4500000000008069 0
0.3500000000002879 0.5000000000008809 0
0.3500000000004048 0.5500000000007119 0
0.3500000000005217 0.6000000000005326 0
0.3500000000006386 0.6500000000003534 0
0.3500000000007555 0.700000000000174 0
0.3500000000008724 0.7499999999999949 0
0.3500000000009892 0.7999999999998155 0
0.3500000000011061 0.849999999999636 0
0.3500000000012231 0.8999999999996371 0
0.35000000000134 0.9499999999998184 0
0.3999999999991077 0.05000000000008462 0
0.3999999999992422 0.1000000000001754 0
0.3999999999993769 0.1500000000002558 0
0.3999999999995115 0.2000000000003223 0
0.3999999999996461 0.2500000000003887 0
0.3999999999997807 0.3000000000004552 0
0.3999999999999154 0.3500000000005217 0
0.4000000000000499 0.4000000000005882 0
0.4000000000001844 0.4500000000006548 0
0.4000000000003192 0.5000000000007125 0
0.4000000000004537 0.5500000000005658 0
0.4000000000005883 0.6000000000004104 0
0.4000000000007228 0.650000000000255 0
0.4000000000008574 0.7000000000000999 0
0.4000000000009921 0.7499999999999445 0
0.4000000000011266 0.7999999999997891 0
0.4000000000012613 0.8499999999996338 0
0.4000000000013959 0.8999999999996446 0
0.4000000000015304 0.9499999999998224 0
0.4499999999989795 0.05000000000006917 0
0.4499999999991318 0.1000000000001453 0
0.449999999999284 0.1500000000002097 0
0.4499999999994362 0.2000000000002585 0
0.4499999999995886 0.2500000000003073 0
0.4499999999997409 0.3000000000003561 0
0.4499999999998932 0.3500000000004049 0
0.4500000000000455 0.4000000000004538 0
0.4500000000001979 0.4500000000005023 0
0.4500000000003501 0.500000000000544 0
0.4500000000005024 0.5500000000004197 0
0.4500000000006547 0.6000000000002883 0
0.4500000000008069 0.6500000000001569 0
0.4500000000009592 0.7000000000000255 0
0.4500000000011116 0.7499999999998941 0
0.4500000000012639 0.7999999999997627 0
0.4500000000014162 0.8499999999996313 0
0.4500000000015684 0.8999999999996522 0
0.4500000000017207 0.9499999999998261 0
0.4999999999988605 0.05000000000005374 0
0.4999999999990289 0.1000000000001152 0
0.4999999999991973 0.1500000000001636 0
0.4999999999993656 0.2000000000001947 0
0.4999999999995339 0.2500000000002258 0
0.4999999999997022 0.3000000000002568 0
0.4999999999998705 0.350000000000288 0
0.5000000000000391 0.4000000000003192 0
0.5000000000002074 0.4500000000003502 0
0.5000000000003757 0.5000000000003757 0
0.5000000000005442 0.5500000000002736 0
0.5000000000007125 0.6000000000001662 0
0.5000000000008809 0.6500000000000588 0
0.5000000000010494 0.6999999999999513 0
0.5000000000012177 0.7499999999998439 0
0.500000000001386 0.7999999999997363 0
0.5000000000015543 0.8499999999996287 0
0.5000000000017226 0.89999999999966 0
0.5000000000018912 0.9499999999998301 0
0.5499999999989591 0.05000000000003831 0
0.5499999999991054 0.1000000000000851 0
0.5499999999992513 0.1500000000001175 0
0.5499999999993974 0.2000000000001309 0
0.5499999999995433 0.2500000000001443 0
0.5499999999996894 0.3000000000001577 0
0.5499999999998355 0.350000000000171 0
0.5499999999999816 0.4000000000001845 0
0.5500000000001277 0.4500000000001979 0
0.5500000000002736 0.5000000000002074 0
0.5500000000004197 0.5500000000001275 0
0.5500000000005658 0.6000000000000441 0
0.5500000000007119 0.6499999999999606 0
0.550000000000858 0.6999999999998772 0
0.5500000000010041 0.7499999999997935 0
0.5500000000011502 0.7999999999997098 0
0.5500000000012961 0.8499999999996263 0
0.5500000000014422 0.8999999999996675 0
0.5500000000015881 0.9499999999998336 0
0.5999999999990671 0.05000000000002287 0
0.5999999999991893 0.100000000000055 0
0.5999999999993113 0.1500000000000715 0
0.5999999999994334 0.2000000000000671 0
0.5999999999995556 0.2500000000000629 0
0.5999999999996777 0.3000000000000586 0
0.5999999999998 0.3500000000000542 0
0.5999999999999219 0.4000000000000498 0
0.6000000000000441 0.4500000000000455 0
0.6000000000001662 0.5000000000000391 0
0.6000000000002883 0.5499999999999816 0
0.6000000000004104 0.5999999999999219 0
0.6000000000005326 0.6499999999998625 0
0.6000000000006547 0.6999999999998028 0
0.6000000000007768 0.7499999999997431 0
0.6000000000008989 0.7999999999996834 0
0.600000000001021 0.8499999999996237 0
0.6000000000011432 0.8999999999996751 0
0.6000000000012653 0.9499999999998376 0
0.6499999999991753 0.05000000000000744 0
0.649999999999273 0.1000000000000248 0
0.6499999999993715 0.1500000000000254 0
0.6499999999994697 0.2000000000000033 0
0.6499999999995678 0.2499999999999813 0
0.6499999999996662 0.2999999999999593 0
0.6499999999997641 0.3499999999999372 0
0.6499999999998625 0.3999999999999153 0
0.6499999999999606 0.4499999999998932 0
0.6500000000000588 0.4999999999998708 0
0.6500000000001569 0.5499999999998355 0
0.650000000000255 0.5999999999997998 0
0.6500000000003534 0.6499999999997643 0
0.6500000000004515 0.6999999999997286 0
0.6500000000005497 0.7499999999996929 0
0.6500000000006478 0.7999999999996572 0
0.6500000000007462 0.8499999999996214 0
0.6500000000008443 0.8999999999996828 0
0.6500000000009425 0.9499999999998414 0
0.6999999999992832 0.049999999999992 0
0.699999999999357 0.09999999999999476 0
0.6999999999994317 0.1499999999999793 0
0.6999999999995059 0.1999999999999396 0
0.6999999999995801 0.2499999999998999 0
0.6999999999996542 0.2999999999998602 0
0.6999999999997286 0.3499999999998204 0
0.699999999999803 0.3999999999997807 0
0.6999999999998772 0.4499999999997408 0
0.6999999999999513 0.4999999999997022 0
0.7000000000000255 0.5499999999996896 0
0.7000000000000999 0.5999999999996777 0
0.700000000000174 0.649999999999666 0
0.7000000000002484 0.6999999999996542 0
0.7000000000003226 0.7499999999996427 0
0.7000000000003967 0.7999999999996308 0
0.7000000000004709 0.8499999999996188 0
0.7000000000005455 0.8999999999996904 0
0.7000000000006197 0.9499999999998452 0
0.7499999999993907 0.04999999999997656 0
0.749999999999441 0.09999999999996464 0
0.7499999999994917 0.1499999999999332 0
0.7499999999995421 0.1999999999998758 0
0.7499999999995921 0.2499999999998184 0
0.7499999999996425 0.2999999999997609 0
0.7499999999996929 0.3499999999997035 0
0.7499999999997433 0.3999999999996461 0
0.7499999999997935 0.4499999999995886 0
0.7499999999998439 0.4999999999995339 0
0.7499999999998941 0.5499999999995435 0
0.7499999999999445 0.5999999999995556 0
0.7499999999999947 0.6499999999995678 0
0.7500000000000451 0.6999999999995801 0
0.7500000000000955 0.7499999999995921 0
0.7500000000001459 0.7999999999996044 0
0.7500000000001961 0.8499999999996165 0
0.7500000000002465 0.8999999999996982 0
0.7500000000002969 0.9499999999998492 0
0.7999999999994987 0.04999999999996112 0
0.7999999999995252 0.09999999999993453 0
0.7999999999995516 0.1499999999998872 0
0.7999999999995779 0.199999999999812 0
0.7999999999996045 0.2499999999997369 0
0.7999999999996306 0.2999999999996618 0
0.7999999999996572 0.3499999999995866 0
0.7999999999996834 0.3999999999995116 0
0.7999999999997098 0.4499999999994364 0
0.7999999999997363 0.4999999999993656 0
0.7999999999997627 0.5499999999993974 0
0.7999999999997891 0.5999999999994334 0
0.7999999999998153 0.6499999999994697 0
0.7999999999998419 0.6999999999995059 0
0.7999999999998681 0.7499999999995419 0
0.7999999999998946 0.7999999999995779 0
0.799999999999921 0.8499999999996143 0
0.7999999999999472 0.8999999999997057 0
0.7999999999999736 0.9499999999998527 0
0.8499999999996068 0.04999999999994569 0
0.8499999999996093 0.09999999999990444 0
0.8499999999996115 0.1499999999998411 0
0.8499999999996141 0.1999999999997482 0
0.8499999999996166 0.2499999999996554 0
0.8499999999996189 0.2999999999995625 0
0.8499999999996214 0.3499999999994698 0
0.8499999999996238 0.3999999999993769 0
0.8499999999996264 0.449999999999284 0
0.8499999999996287 0.4999999999991972 0
0.8499999999996312 0.5499999999992513 0
0.8499999999996333 0.5999999999993113 0
0.849999999999636 0.6499999999993713 0
0.8499999999996384 0.6999999999994315 0
0.8499999999996409 0.7499999999994917 0
0.8499999999996432 0.7999999999995515 0
0.8499999999996457 0.8499999999996115 0
0.849999999999648 0.8999999999997133 0
0.8499999999996507 0.9499999999998567 0
0.8999999999997284 0.04999999999993025 0
0.8999999999997209 0.09999999999987436 0
0.8999999999997134 0.149999999999795 0
0.8999999999997055 0.1999999999996844 0
0.8999999999996982 0.2499999999995739 0
0.8999999999996904 0.2999999999994635 0
0.8999999999996828 0.3499999999993529 0
0.8999999999996751 0.3999999999992422 0
0.8999999999996675 0.4499999999991318 0
0.89999999999966 0.4999999999990288 0
0.8999999999996522 0.5499999999991052 0
0.8999999999996446 0.5999999999991892 0
0.8999999999996369 0.6499999999992732 0
0.8999999999996293 0.6999999999993571 0
0.8999999999996218 0.7499999999994411 0
0.8999999999996142 0.7999999999995253 0
0.8999999999996067 0.8499999999996094 0
0.8999999999995987 0.899999999999721 0
0.8999999999995911 0.9499999999998605 0
0.9499999999998644 0.04999999999991482 0
0.9499999999998606 0.09999999999984424 0
0.9499999999998566 0.1499999999997489 0
0.949999999999853 0.1999999999996207 0
0.949999999999849 0.2499999999994925 0
0.9499999999998454 0.2999999999993642 0
0.9499999999998415 0.349999999999236 0
0.9499999999998375 0.3999999999991077 0
0.9499999999998339 0.4499999999989795 0
0.9499999999998299 0.4999999999988605 0
0.9499999999998261 0.5499999999989591 0
0.9499999999998223 0.5999999999990671 0
0.9499999999998185 0.649999999999175 0
0.9499999999998148 0.699999999999283 0
0.949999999999811 0.7499999999993909 0
0.949999999999807 0.7999999999994989 0
0.9499999999998032 0.8499999999996067 0
0.9499999999997994 0.8999999999997286 0
0.9499999999997957 0.9499999999998643 0

CELLS 484 2248
1 0
1 1
1 2
1 3
2 0 4
2 4 5
2 5 6
2 6 7
2 7 8
2 8 9
2 9 10
2 10 11
2 11 12
2 12 13
2 13 14
2 14 15
2 15 16
2 16 17
2 17 18
2 18 19
2 19 20
2 20 21
2 21 22
2 22 1
2 1 23
2 23 24
2 24 25
2 25 26
2 26 27
2 27 28
2 28 29
2 29 30
2 30 31
2 31 32
2 32 33
2 33 34
2 34 35
2 35 36
2 36 37
2 37 38
2 38 39
2 39 40
2 40 41
2 41 2
2 2 42
2 42 43
2 43 44
2 44 45
2 45 46
2 46 47
2 47 48
2 48 49
2 49 50
2 50 51
2 51 52
2 52 53
2 53 54
2 54 55
2 55 56
2 56 57
2 57 58
2 58 59
2 59 60
2 60 3
2 3 61
2 61 62
2 62 63
2 63 64
2 64 65
2 65 66
2 66 67
2 67 68
2 68 69
2 69 70
2 70 71
2 71 72
2 72 73
2 73 74
2 74 75
2 75 76
2 76 77
2 77 78
2 78 79
2 79 0
4 0 4 80 79
4 79 80 81 78
4 78 81 82 77
4 77 82 83 76
4 76 83 84 75
4 75 84 85 74
4 74 85 86 73
4 73 86 87 72
4 72 87 88 71
4 71 88 89 70
4 70 89 90 69
4 69 90 91 68
4 68 91 92 67
4 67 92 93 66
4 66 93 94 65
4 65 94 95 64
4 64 95 96 63
4 63 96 97 62
4 62 97 98 61
4 61 98 60 3
4 4 5 99 80
4 80 99 100 81
4 81 100 101 82
4 82 101 102 83
4 83 102 103 84
4 84 103 104 85
4 85 104 105 86
4 86 105 106 87
4 87 106 107 88
4 88 107 108 89
4 89 108 109 90
4 90 109 110 91
4 91 110 111 92
4 92 111 112 93
4 93 112 113 94
4 94 113 114 95
4 95 114 115 96
4 96 115 116 97
4 97 116 117 98
4 98 117 59 60
4 5 6 118 99
4 99 118 119 100
4 100 119 120 101
4 101 120 121 102
4 102 121 122 103
4 103 122 123 104
4 104 123 124 105
4 105 124 125 106
4 106 125 126 107
4 107 126 127 108
4 108 127 128 109
4 109 128 129 110
4 110 129 130 111
4 111 130 131 112
4 112 131 132 113
4 113 132 133 114
4 114 133 134 115
4 115 134 135 116
4 116 135 136 117
4 117 136 58 59
4 6 7 137 118
4 118 137 138 119
4 119 138 139 120
4 120 139 140 121
4 121 140 141 122
4 122 141 142 123
4 123 142 143 124
4 124 143 144 125
4 125 144 145 126
4 126 145 146 127
4 127 146 147 128
4 128 147 148 129
4 129 148 149 130
4 130 149 150 131
4 131 150 151 132
4 132 151 152 133
4 133 152 153 134
4 134 153 154 135
4 135 154 155 136
4 136 155 57 58
4 7 8 156 137
4 137 156 157 138
4 138 157 158 139
4 139 158 159 140
4 140 159 160 141
4 141 160 161 142
4 142 161 162 143
4 143 162 163 144
4 144 163 164 145
4 145 164 165 146
4 146 165 166 147
4 147 166 167 148
4 148 167 168 149
4 149 168 169 150
4 150 169 170 151
4 151 170 171 152
4 152 171 172 153
4 153 172 173 154
4 154 173 174 155
4 155 174 56 57
4 8 9 175 156
4 156 175 176 157
4 157 176 177 158
4 158 177 178 159
4 159 178 179 160
4 160 179 180 161
4 161 180 181 162
4 162 181 182 163
4 163 182 183 164
4 164 183 184 165
4 165 184 185 166
4 166 185 186 167
4 167 186 187 168
4 168 187 188 169
4 169 188 189 170
4 170 189 190 171
4 171 190 191 172
4 172 191 192 173
4 173 192 193 174
4 174 193 55 56
4 9 10 194 175
4 175 194 195 176
4 176 195 196 177
4 177 196 197 178
4 178 197 198 179
4 179 198 199 180
4 180 199 200 181
4 181 200 201 182
4 182 201 202 183
4 183 202 203 184
4 184 203 204 185
4 185 204 205 186
4 186 205 206 187
4 187 206 207 188
4 188 207 208 189
4 189 208 209 190
4 190 209 210 191
4 191 210 211 192
4 192 211 212 193
4 193 212 54 55
4 10 11 213 194
4 194 213 214 195
4 195 214 215 196
4 196 215 216 197
4 197 216 217 198
4 198 217 218 199
4 199 218 219 200
4 200 219 220 201
4 201 220 221 202
4 202 221 222 203
4 203 222 223 204
4 204 223 224 205
4 205 224 225 206
4 206 225 226 207
4 207 226 227 208
4 208 227 228 209
4 209 228 229 210
4 210 229 230 211
4 211 230 231 212
4 212 231 53 54
4 11 12 232 213
4 213 232 233 214
4 214 233 234 215
4 215 234 235 216
4 216 235 236 217
4 217 236 237 218
4 218 237 238 219
4 219 238 239 220
4 220 239 240 221
4 221 240 241 222
4 222 241 242 223
4 223 242 243 224
4 224 243 244 225
4 225 244 245 226
4 226 245 246 227
4 227 246 247 228
4 228 247 248 229
4 229 248 249 230
4 230 249 250 231
4 231 250 52 53
4 12 13 251 232
4 232 251 252 233
4 233 252 253 234
4 234 253 254 235
4 235 254 255 236
4 236 255 256 237
4 237 256 257 238
4 238 257 258 239
4 239 258 259 240
4 240 259 260 241
4 241 260 261 242
4 242 261 262 243
4 243 262 263 244
4 244 263 264 245
4 245 264 265 246
4 246 265 266 247
4 247 266 267 248
4 248 267 268 249
4 249 268 269 250
4 250 269 51 52
4 13 14 270 251
4 251 270 271 252
4 252 271 272 253
4 253 272 273 254
4 254 273 274 255
4 255 274 275 256
4 256 275 276 257
4 257 276 277 258
4 258 277 278 259
4 259 278 279 260
4 260 279 280 261
4 261 280 281 262
4 262 281 282 263
4 263 282 283 264
4 264 283 284 265
4 265 284 285 266
4 266 285 286 267
4 267 286 287 268
4 268 287 288 269
4 269 288 50 51
4 14 15 289 270
4 270 289 290 271
4 271 290 291 272
4 272 291 292 273
4 273 292 293 274
4 274 293 294 275
4 275 294 295 276
4 276 295 296 277
4 277 296 297 278
4 278 297 298 279
4 279 298 299 280
4 280 299 300 281
4 281 300 301 282
4 282 301 302 283
4 283 302 303 284
4 284 303 304 285
4 285 304 305 286
4 286 305 306 287
4 287 306 307 288
4 288 307 49 50
4 15 16 308 289
4 289 308 309 290
4 290 309 310 291
4 291 310 311 292
4 292 311 312 293
4 293 312 313 294
4 294 313 314 295
4 295 314 315 296
4 296 315 316 297
4 297 316 317 298
4 298 317 318 299
4 299 318 319 300
4 300 319 320 301
4 301 320 321 302
4 302 321 322 303
4 303 322 323 304
4 304 323 324 305
4 305 324 325 306
4 306 325 326 307
4 307 326 48 49
4 16 17 327 308
4 308 327 328 309
4 309 328 329 310
4 310 329 330 311
4 311 330 331 312
4 312 331 332 313
4 313 332 333 314
4 314 333 334 315
4 315 334 335 316
4 316 335 336 317
4 317 336 337 318
4 318 337 338 319
4 319 338 339 320
4 320 339 340 321
4 321 340 341 322
4 322 341 342 323
4 323 342 343 324
4 324 343 344 325
4 325 344 345 326
4 326 345 47 48
4 17 18 346 327
4 327 346 347 328
4 328 347 348 329
4 329 348 349 330
4 330 349 350 331
4 331 350 351 332
4 332 351 352 333
4 333 352 353 334
4 334 353 354 335
4 335 354 355 336
4 336 355 356 337
4 337 356 357 338
4 338 357 358 339
4 339 358 359 340
4 340 359 360 341
4 341 360 361 342
4 342 361 362 343
4 343 362 363 344
4 344 363 364 345
4 345 364 46 47
4 18 19 365 346
4 346 365 366 347
4 347 366 367 348
4 348 367 368 349
4 349 368 369 350
4 350 369 370 351
4 351 370 371 352
4 352 371 372 353
4 353 372 373 354
4 354 373 374 355
4 355 374 375 356
4 356 375 376 357
4 357 376 377 358
4 358 377 378 359
4 359 378 379 360
4 360 379 380 361
4 361 380 381 362
4 362 381 382 363
4 363 382 383 364
4 364 383 45 46
4 19 20 384 365
4 365 384 385 366
4 366 385 386 367
4 367 386 387 368
4 368 387 388 369
4 369 388 389 370
4 370 389 390 371
4 371 390 391 372
4 372 391 392 373
4 373 392 393 374
4 374 393 394 375
4 375 394 395 376
4 376 395 396 377
4 377 396 397 378
4 378 397 398 379
4 379 398 399 380
4 380 399 400 381
4 381 400 401 382
4 382 401 402 383
4 383 402 44 45
4 20 21 403 384
4 384 403 404 385
4 385 404 405 386
4 386 405 406 387
4 387 406 407 388
4 388 407 408 389
4 389 408 409 390
4 390 409 410 391
4 391 410 411 392
4 392 411 412 393
4 393 412 413 394
4 394 413 414 395
4 395 414 415 396
4 396 415 416 397
4 397 416 417 398
4 398 417 418 399
4 399 418 419 400
4 400 419 420 401
4 401 420 421 402
4 402 421 43 44
4 21 22 422 403
4 403 422 423 404
4 404 423 424 405
4 405 424 425 406
4 406 425 426 407
4 407 426 427 408
4 408 427 428 409
4 409 428 429 410
4 410 429 430 411
4 411 430 431 412
4 412 431 432 413
4 413 432 433 414
4 414 433 434 415
4 415 434 435 416
4 416 435 436 417
4 417 436 437 418
4 418 437 438 419
4 419 438 439 420
4 420 439 440 421
4 421 440 42 43
4 22 1 23 422
4 422 23 24 423
4 423 24 25 424
4 424 25 26 425
4 425 26 27 426
4 426 27 28 427
4 427 28 29 428
4 428 29 30 429
4 429 30 31 430
4 430 31 32 431
4 431 32 33 432
4 432 33 34 433
4 433 34 35 434
4 434 35 36 435
4 435 36 37 436
4 436 37 38 437
4 437 38 39 438
4 438 39 40 439
4 439 40 41 440
4 440 41 2 42

CELL_TYPES 484
1
1
1
1
3
3
3
3
3
3
3
3
3
3
3
3
3
3
3
3
3
3
3
3
3
3
3
3
3
3
3
3
3
3
3
3
3
3
3
3
3
3
3
3
3
3
3
3
3
3
3
3
3
3
3
3
3
3
3
3
3
3
3
3
3
3
3
3
3
3
3
3
3
3
3
3
3
3
3
3
3
3
3
3
9
9
9
9
9
9
9
9
9
9
9
9
9
9
9
9
9
9
9
9
9
9
9
9
9
9
9
9
9
9
9
9
9
9
9
9
9
9
9
9
9
9
9
9
9
9
9
9
9
9
9
9
9
9
9
9
9
9
9
9
9
9
9
9
9
9
9
9
9
9
9
9
9
9
9
9
9
9
9
9
9
9
9
9
9
9
9
9
9
9
9
9
9
9
9
9
9
9
9
9
9
9
9
9
9
9
9
9
9
9
9
9
9
9
9
9
9
9
9
9
9
9
9
9
9
9
9
9
9
9
9
9
9
9
9
9
9
9
9
9
9
9
9
9
9
9
9
9
9
9
9
9
9
9
9
9
9
9
9
9
9
9
9
9
9
9
9
9
9
9
9
9
9
9
9
9
9
9
9
9
9
9
9
9
9
9
9
9
9
9
9
9
9
9
9
9
9
9
9
9
9
9
9
9
9
9
9
9
9
9
9
9
9
9
9
9
9
9
9
9
9
9
9
9
9
9
9
9
9
9
9
9
9
9
9
9
9
9
9
9
9
9
9
9
9
9
9
9
9
9
9
9
9
9
9
9
9
9
9
9
9
9
9
9
9
9
9
9
9
9
9
9
9
9
9
9
9
9
9
9
9
9
9
9
9
9
9
9
9
9
9
9
9
9
9
9
9
9
9
9
9
9
9
9
9
9
9
9
9
9
9
9
9
9
9
9
9
9
9
9
9
9
9
9
9
9
9
9
9
9
9
9
9
9
9
9
9
9
9
9
9
9
9
9
9
9
9
9
9
9
9
9
9
9
9
9
9
9
9
9
9
9
9
9
9
9
9
9
9
9
9
9
9
9
9
9
9
9
9
9
9
9
9
9
9
9
9
9
9
9
9
9
9
9
9
9
9
9
9
9
