# vtk DataFile Version 2.0
cube, Created by Gmsh 4.14.1 
ASCII
DATASET UNSTRUCTURED_GRID
POINTS 272 double
-0.5 -0.5 0.5
-0.5 -0.5 -0.5
-0.5 0.5 0.5
-0.5 0.5 -0.5
0.5 -0.5 0.5
0.5 -0.5 -0.5
0.5 0.5 0.5
0.5 0.5 -0.5
-0.5 -0.5 -0.3333333333333338
-0.5 -0.5 -0.1666666666666676
-0.5 -0.5 -1.443289932012704e-15
-0.5 -0.5 0.1666666666666646
-0.5 -0.5 0.3333333333333321
-0.5 -0.3333333333333338 0.5
-0.5 -0.1666666666666676 0.5
-0.5 -1.443289932012704e-15 0.5
-0.5 0.1666666666666646 0.5
-0.5 0.3333333333333321 0.5
-0.5 0.5 -0.3333333333333338
-0.5 0.5 -0.1666666666666676
-0.5 0.5 -1.443289932012704e-15
-0.5 0.5 0.1666666666666646
-0.5 0.5 0.3333333333333321
-0.5 -0.3333333333333338 -0.5
-0.5 -0.1666666666666676 -0.5
-0.5 -1.443289932012704e-15 -0.5
-0.5 0.1666666666666646 -0.5
-0.5 0.3333333333333321 -0.5
0.5 -0.5 -0.3333333333333338
0.5 -0.5 -0.1666666666666676
0.5 -0.5 -1.443289932012704e-15
0.5 -0.5 0.1666666666666646
0.5 -0.5 0.3333333333333321
0.5 -0.3333333333333338 0.5
0.5 -0.1666666666666676 0.5
0.5 -1.443289932012704e-15 0.5
0.5 0.1666666666666646 0.5
0.5 0.3333333333333321 0.5
0.5 0.5 -0.3333333333333338
0.5 0.5 -0.1666666666666676
0.5 0.5 -1.443289932012704e-15
0.5 0.5 0.1666666666666646
0.5 0.5 0.3333333333333321
0.5 -0.3333333333333338 -0.5
0.5 -0.1666666666666676 -0.5
0.5 -1.443289932012704e-15 -0.5
0.5 0.1666666666666646 -0.5
0.5 0.3333333333333321 -0.5
-0.3333333333333338 -0.5 -0.5
-0.1666666666666676 -0.5 -0.5
-1.443289932012704e-15 -0.5 -0.5
0.1666666666666646 -0.5 -0.5
0.3333333333333321 -0.5 -0.5
-0.3333333333333338 -0.5 0.5
-0.1666666666666676 -0.5 0.5
-1.443289932012704e-15 -0.5 0.5
0.1666666666666646 -0.5 0.5
0.3333333333333321 -0.5 0.5
-0.3333333333333338 0.5 -0.5
-0.1666666666666676 0.5 -0.5
-1.443289932012704e-15 0.5 -0.5
0.1666666666666646 0.5 -0.5
0.3333333333333321 0.5 -0.5
-0.3333333333333338 0.5 0.5
-0.1666666666666676 0.5 0.5
-1.443289932012704e-15 0.5 0.5
0.1666666666666646 0.5 0.5
0.3333333333333321 0.5 0.5
-0.5 0.09778760911776285 0.3506173125074281
-0.5 0.09778760911776263 -0.3506173125074291
-0.5 -0.3491573523912473 0.08151095683405229
-0.5 0.3556624327025939 0.08333333333333159
-0.5 -0.3486919098564352 -0.2376257747152442
-0.5 -0.2522937250022408 0.3611620212026556
-0.5 0.3588713258240283 -0.2492937717865213
-0.5 0.358871325824028 0.2492937717865189
-0.5 0.1975287124464881 0.192564646662274
-0.5 0.2090255065787381 0.004316329999266566
-0.5 0.06698729810778192 0.08333333333333104
-0.5 0.06381293421554957 -0.07777955317577201
-0.5 -0.07493641577898863 0.0009256300262583395
-0.5 -0.07873396913733699 -0.1600894341814629
-0.5 -0.07735026918962395 0.1666666666666641
-0.5 -0.2277778290501113 -0.08009999190130146
-0.5 0.3558140217517579 -0.08249624029787672
-0.5 -0.07907868459423845 0.3318012084636078
-0.5 -0.07795702464481241 -0.3308249698876641
-0.5 0.1967684076365566 -0.1910350462062351
-0.5 0.2514957068082694 0.3613549960618434
-0.5 -0.3630506580186298 0.2528831044824418
-0.5 0.2514051943308966 -0.3611729007694585
-0.5 -0.2444377959922679 -0.360721643758191
-0.5 -0.1868980160819414 0.0784344142880582
-0.5 -0.3851254182595588 -0.08057629528983251
-0.5 -0.1955197057361928 -0.2338723628887727
-0.5 -0.2179714508796536 0.2120763953229133
-0.5 0.05024047358083794 0.2209936490538889
-0.5 0.04033559143754395 -0.2220692631917126
-0.5 0.3779915320718531 0.3779915320718531
-0.5 -0.3779915320718541 -0.3779915320718541
-0.5 0.3779915320718541 -0.3779915320718544
-0.5 -0.3779915320718545 0.3779915320718541
0.5 0.09778760911776285 0.3506173125074279
0.5 0.09778760911776263 -0.3506173125074291
0.5 -0.3491573523912473 0.08151095683405241
0.5 0.3556624327025939 0.08333333333333159
0.5 -0.2541201705266419 -0.3643697397016906
0.5 0.3588713258240283 -0.2492937717865213
0.5 -0.2522937250022407 0.3611620212026556
0.5 0.358871325824028 0.2492937717865189
0.5 0.197528712446488 0.1925646466622739
0.5 0.2090255065787379 0.004316329999266566
0.5 0.06698729810778192 0.08333333333333115
0.5 0.06381293421554945 -0.0777795531757719
0.5 -0.07493641577898863 0.0009256300262585615
0.5 -0.0773502691896239 0.1666666666666643
0.5 -0.07863006079993901 -0.1599094596617594
0.5 -0.2164287015149212 -0.05953408244436648
0.5 0.3558140217517579 -0.08249624029787672
0.5 -0.07907868459423845 0.3318012084636077
0.5 -0.07960928604161688 -0.3312147972365704
0.5 0.1967684076365563 -0.191035046206235
0.5 0.2514957068082695 0.3613549960618434
0.5 -0.3630506580186297 0.2528831044824418
0.5 0.2514051943308966 -0.3611729007694585
0.5 -0.3686927328593508 -0.2581927692234012
0.5 -0.1846281905749033 0.0825475961794454
0.5 -0.364836538777206 -0.09400476030881072
0.5 -0.2166806401037823 -0.2167924239990172
0.5 -0.2175931466284806 0.2127619256381444
0.5 0.05024047358083783 0.2209936490538891
0.5 0.04002592082566248 -0.2221112337575531
0.5 0.3779915320718531 0.3779915320718531
0.5 0.3779915320718541 -0.3779915320718544
0.5 -0.3779915320718544 0.3779915320718541
0.5 -0.3788401225741576 -0.3788401225741576
0.3506173125074281 -0.5 0.09778760911776285
-0.3506173125074291 -0.5 0.09778760911776263
0.08151095683405229 -0.5 -0.3491573523912473
0.08333333333333159 -0.5 0.3556624327025939
-0.2376257747152442 -0.5 -0.3486919098564352
0.3611620212026556 -0.5 -0.2522937250022408
-0.2492937717865213 -0.5 0.3588713258240283
0.2492937717865189 -0.5 0.358871325824028
0.192564646662274 -0.5 0.1975287124464881
0.004316329999266566 -0.5 0.2090255065787381
0.08333333333333104 -0.5 0.06698729810778192
-0.07777955317577201 -0.5 0.06381293421554957
0.0009256300262583395 -0.5 -0.07493641577898863
-0.1600894341814629 -0.5 -0.07873396913733699
0.1666666666666641 -0.5 -0.07735026918962395
-0.08009999190130146 -0.5 -0.2277778290501113
-0.08249624029787672 -0.5 0.3558140217517579
-0.3308249698876641 -0.5 -0.07795702464481241
0.3318012084636078 -0.5 -0.07907868459423845
-0.1910350462062351 -0.5 0.1967684076365566
0.3613549960618434 -0.5 0.2514957068082694
0.2528831044824418 -0.5 -0.3630506580186298
-0.3611729007694585 -0.5 0.2514051943308966
-0.360721643758191 -0.5 -0.2444377959922679
0.0784344142880582 -0.5 -0.1868980160819414
-0.08057629528983251 -0.5 -0.3851254182595588
-0.2338723628887727 -0.5 -0.1955197057361928
0.2120763953229133 -0.5 -0.2179714508796536
0.2209936490538889 -0.5 0.05024047358083794
-0.2220692631917126 -0.5 0.04033559143754395
0.3779915320718531 -0.5 0.3779915320718531
-0.3779915320718541 -0.5 -0.3779915320718541
-0.3779915320718544 -0.5 0.3779915320718541
0.3779915320718541 -0.5 -0.3779915320718545
0.3506173125074281 0.5 0.09778760911776285
-0.3506173125074291 0.5 0.09778760911776263
0.08151095683405229 0.5 -0.3491573523912473
0.08333333333333159 0.5 0.3556624327025939
-0.2376257747152442 0.5 -0.3486919098564352
0.3611620212026556 0.5 -0.2522937250022408
-0.2492937717865213 0.5 0.3588713258240283
0.2492937717865189 0.5 0.358871325824028
0.192564646662274 0.5 0.1975287124464881
0.004316329999266566 0.5 0.2090255065787381
0.08333333333333104 0.5 0.06698729810778192
-0.07777955317577201 0.5 0.06381293421554957
0.0009256300262583395 0.5 -0.07493641577898863
-0.1600894341814629 0.5 -0.07873396913733699
0.1666666666666641 0.5 -0.07735026918962395
-0.08009999190130157 0.5 -0.2277778290501113
-0.08249624029787672 0.5 0.3558140217517579
-0.3308249698876641 0.5 -0.07795702464481236
0.3318012084636078 0.5 -0.07907868459423845
-0.1910350462062351 0.5 0.1967684076365566
0.3613549960618434 0.5 0.2514957068082694
0.2528831044824418 0.5 -0.3630506580186298
-0.3611729007694585 0.5 0.2514051943308966
-0.360721643758191 0.5 -0.2444377959922679
0.0784344142880582 0.5 -0.1868980160819414
-0.08057629528983251 0.5 -0.3851254182595588
-0.2338723628887727 0.5 -0.1955197057361928
0.2120763953229133 0.5 -0.2179714508796536
0.2209936490538889 0.5 0.05024047358083794
-0.2220692631917127 0.5 0.04033559143754395
0.3779915320718531 0.5 0.3779915320718531
-0.3779915320718542 0.5 -0.3779915320718542
-0.3779915320718544 0.5 0.3779915320718541
0.3779915320718541 0.5 -0.3779915320718545
0.09778760911776285 0.3506173125074279 -0.5
0.09778760911776263 -0.3506173125074291 -0.5
-0.3491573523912473 0.08151095683405241 -0.5
0.3556624327025939 0.08333333333333159 -0.5
-0.3486919098564352 -0.2376257747152442 -0.5
0.3588713258240283 -0.2492937717865213 -0.5
-0.2522937250022407 0.3611620212026556 -0.5
0.358871325824028 0.2492937717865189 -0.5
0.197528712446488 0.1925646466622739 -0.5
0.2090255065787379 0.004316329999266566 -0.5
0.06698729810778192 0.08333333333333115 -0.5
0.06381293421554945 -0.0777795531757719 -0.5
-0.07493641577898863 0.0009256300262585615 -0.5
-0.07873396913733699 -0.1600894341814629 -0.5
-0.0773502691896239 0.1666666666666643 -0.5
-0.2277778290501113 -0.08009999190130135 -0.5
0.3558140217517579 -0.08249624029787672 -0.5
-0.07795702464481236 -0.3308249698876641 -0.5
-0.07907868459423845 0.3318012084636077 -0.5
0.1967684076365563 -0.191035046206235 -0.5
0.2514957068082695 0.3613549960618434 -0.5
-0.3630506580186297 0.2528831044824418 -0.5
0.2514051943308966 -0.3611729007694585 -0.5
-0.2444377959922679 -0.360721643758191 -0.5
-0.1868980160819413 0.07843441428805853 -0.5
-0.3851254182595588 -0.0805762952898324 -0.5
-0.1955197057361927 -0.2338723628887727 -0.5
-0.2179714508796536 0.2120763953229133 -0.5
0.05024047358083783 0.2209936490538891 -0.5
0.04033559143754395 -0.2220692631917126 -0.5
0.3779915320718531 0.3779915320718531 -0.5
-0.3779915320718542 -0.3779915320718542 -0.5
0.3779915320718541 -0.3779915320718544 -0.5
-0.3779915320718544 0.3779915320718541 -0.5
0.09778760911776285 0.3506173125074281 0.5
0.09778760911776263 -0.3506173125074291 0.5
-0.3491573523912473 0.08151095683405229 0.5
0.3556624327025939 0.08333333333333159 0.5
-0.3486919098564352 -0.2376257747152442 0.5
0.3588713258240283 -0.2492937717865213 0.5
-0.2522937250022408 0.3611620212026556 0.5
0.358871325824028 0.2492937717865189 0.5
0.1975287124464881 0.192564646662274 0.5
0.2090255065787381 0.004316329999266566 0.5
0.06698729810778192 0.08333333333333104 0.5
0.06381293421554957 -0.07777955317577201 0.5
-0.07493641577898863 0.0009256300262583395 0.5
-0.07873396913733699 -0.1600894341814629 0.5
-0.07735026918962395 0.1666666666666641 0.5
-0.2277778290501113 -0.08009999190130146 0.5
0.3558140217517579 -0.08249624029787672 0.5
-0.07795702464481241 -0.3308249698876641 0.5
-0.07907868459423845 0.3318012084636078 0.5
0.1967684076365566 -0.1910350462062351 0.5
0.2514957068082694 0.3613549960618434 0.5
-0.3630506580186298 0.2528831044824418 0.5
0.2514051943308966 -0.3611729007694585 0.5
-0.2444377959922679 -0.360721643758191 0.5
-0.1868980160819414 0.0784344142880582 0.5
-0.3851254182595588 -0.08057629528983251 0.5
-0.1955197057361928 -0.2338723628887727 0.5
-0.2179714508796536 0.2120763953229133 0.5
0.05024047358083794 0.2209936490538889 0.5
0.04033559143754395 -0.2220692631917126 0.5
0.3779915320718531 0.3779915320718531 0.5
-0.3779915320718541 -0.3779915320718541 0.5
0.3779915320718541 -0.3779915320718544 0.5
-0.3779915320718545 0.3779915320718541 0.5

CELLS 620 2392
1 0
1 1
1 2
1 3
1 4
1 5
1 6
1 7
2 1 8
2 8 9
2 9 10
2 10 11
2 11 12
2 12 0
2 0 13
2 13 14
2 14 15
2 15 16
2 16 17
2 17 2
2 3 18
2 18 19
2 19 20
2 20 21
2 21 22
2 22 2
2 1 23
2 23 24
2 24 25
2 25 26
2 26 27
2 27 3
2 5 28
2 28 29
2 29 30
2 30 31
2 31 32
2 32 4
2 4 33
2 33 34
2 34 35
2 35 36
2 36 37
2 37 6
2 7 38
2 38 39
2 39 40
2 40 41
2 41 42
2 42 6
2 5 43
2 43 44
2 44 45
2 45 46
2 46 47
2 47 7
2 1 48
2 48 49
2 49 50
2 50 51
2 51 52
2 52 5
2 0 53
2 53 54
2 54 55
2 55 56
2 56 57
2 57 4
2 3 58
2 58 59
2 59 60
2 60 61
2 61 62
2 62 7
2 2 63
2 63 64
2 64 65
2 65 66
2 66 67
2 67 6
3 76 68 88
3 69 87 90
3 68 76 96
3 87 69 97
3 83 70 92
3 70 83 93
3 83 72 93
3 72 83 94
3 70 89 95
3 92 70 95
3 75 76 88
3 87 74 90
3 82 85 96
3 86 81 97
3 81 86 94
3 85 82 95
3 85 68 96
3 69 86 97
3 22 21 75
3 75 71 76
3 76 71 77
3 21 71 75
3 77 84 87
3 84 74 87
3 10 11 70
3 15 68 85
3 26 25 69
3 77 71 84
3 78 77 79
3 19 18 74
3 19 74 84
3 76 77 78
3 79 77 87
3 80 79 81
3 8 9 72
3 13 14 73
3 15 16 68
3 21 20 71
3 25 24 86
3 69 25 86
3 78 79 80
3 78 80 82
3 80 81 83
3 20 19 84
3 14 15 85
3 73 14 85
3 71 20 84
3 73 85 95
3 16 17 88
3 11 12 89
3 27 26 90
3 24 23 91
3 86 91 94
3 10 70 93
3 80 83 92
3 72 9 93
3 68 16 88
3 26 69 90
3 70 11 89
3 86 24 91
3 76 78 96
3 79 87 97
3 17 2 98
3 2 22 98
3 1 8 99
3 23 1 99
3 3 27 100
3 12 0 101
3 0 13 101
3 18 3 100
3 9 10 93
3 82 80 92
3 89 73 95
3 83 81 94
3 91 72 94
3 78 82 96
3 81 79 97
3 27 90 100
3 89 12 101
3 91 23 99
3 88 17 98
3 8 72 99
3 22 75 98
3 74 18 100
3 13 73 101
3 82 92 95
3 90 74 100
3 73 89 101
3 75 88 98
3 72 91 99
3 110 122 102
3 103 124 121
3 102 130 110
3 121 131 103
3 125 128 127
3 127 128 117
3 104 127 117
3 117 126 104
3 104 129 123
3 126 129 104
3 109 122 110
3 121 124 107
3 115 130 119
3 120 131 116
3 116 128 120
3 119 129 115
3 119 130 102
3 103 131 120
3 42 109 41
3 109 110 105
3 110 111 105
3 41 109 105
3 111 121 118
3 34 119 35
3 108 119 34
3 118 121 107
3 112 113 111
3 30 104 31
3 46 103 45
3 111 118 105
3 112 115 114
3 114 116 113
3 33 108 34
3 39 107 38
3 39 118 107
3 45 120 44
3 44 120 106
3 110 112 111
3 113 121 111
3 112 114 113
3 114 117 116
3 35 102 36
3 41 105 40
3 44 106 43
3 103 120 45
3 35 119 102
3 40 118 39
3 105 118 40
3 120 128 106
3 108 129 119
3 36 122 37
3 31 123 32
3 47 124 46
3 30 127 104
3 114 126 117
3 102 122 36
3 46 124 103
3 104 123 31
3 28 125 29
3 110 130 112
3 113 131 121
3 37 132 6
3 6 132 42
3 32 134 4
3 7 133 47
3 4 134 33
3 38 133 7
3 125 127 29
3 5 135 28
3 43 135 5
3 115 126 114
3 29 127 30
3 106 128 125
3 123 129 108
3 117 128 116
3 112 130 115
3 116 131 113
3 123 134 32
3 47 133 124
3 122 132 37
3 106 135 43
3 42 132 109
3 33 134 108
3 107 133 38
3 115 129 126
3 124 133 107
3 108 134 123
3 109 132 122
3 125 135 106
3 28 135 125
3 144 136 156
3 137 155 158
3 136 144 164
3 155 137 165
3 151 138 160
3 138 151 161
3 151 140 161
3 140 151 162
3 138 157 163
3 160 138 163
3 143 144 156
3 155 142 158
3 150 154 164
3 153 149 165
3 149 153 162
3 154 150 163
3 154 136 164
3 137 153 165
3 57 56 143
3 143 139 144
3 144 139 145
3 56 139 143
3 145 152 155
3 152 142 155
3 11 10 137
3 30 136 154
3 50 51 138
3 145 139 152
3 146 145 147
3 54 53 142
3 54 142 152
3 144 145 146
3 147 145 155
3 148 147 149
3 10 9 153
3 137 10 153
3 28 29 141
3 30 31 136
3 48 49 140
3 56 55 139
3 146 147 148
3 146 148 150
3 148 149 151
3 55 54 152
3 29 30 154
3 141 29 154
3 139 55 152
3 141 154 163
3 31 32 156
3 12 11 158
3 51 52 157
3 9 8 159
3 153 159 162
3 50 138 161
3 148 151 160
3 140 49 161
3 136 31 156
3 11 137 158
3 138 51 157
3 153 9 159
3 144 146 164
3 147 155 165
3 32 4 166
3 4 57 166
3 8 1 167
3 1 48 167
3 0 12 168
3 52 5 169
3 53 0 168
3 5 28 169
3 49 50 161
3 150 148 160
3 157 141 163
3 151 149 162
3 159 140 162
3 146 150 164
3 149 147 165
3 12 158 168
3 159 8 167
3 157 52 169
3 156 32 166
3 48 140 167
3 57 143 166
3 142 53 168
3 28 141 169
3 150 160 163
3 158 142 168
3 141 157 169
3 143 156 166
3 140 159 167
3 178 190 170
3 171 192 189
3 170 198 178
3 189 199 171
3 172 195 185
3 185 194 172
3 185 195 174
3 174 196 185
3 172 197 191
3 194 197 172
3 177 190 178
3 189 192 176
3 184 198 188
3 187 199 183
3 183 196 187
3 188 197 184
3 188 198 170
3 171 199 187
3 67 177 66
3 177 178 173
3 178 179 173
3 66 177 173
3 179 189 186
3 186 189 176
3 21 171 20
3 40 188 170
3 60 172 61
3 179 186 173
3 180 181 179
3 64 176 63
3 64 186 176
3 178 180 179
3 181 189 179
3 182 183 181
3 182 185 183
3 20 187 19
3 171 187 20
3 38 175 39
3 40 170 41
3 58 174 59
3 66 173 65
3 180 182 181
3 180 184 182
3 65 186 64
3 39 188 40
3 175 188 39
3 173 186 65
3 175 197 188
3 41 190 42
3 22 192 21
3 61 191 62
3 19 193 18
3 187 196 193
3 60 195 172
3 174 195 59
3 182 194 185
3 170 190 41
3 21 192 171
3 172 191 61
3 187 193 19
3 178 198 180
3 181 199 189
3 42 200 6
3 6 200 67
3 2 202 22
3 18 201 3
3 3 201 58
3 62 203 7
3 63 202 2
3 7 203 38
3 59 195 60
3 184 194 182
3 191 197 175
3 185 196 183
3 193 196 174
3 180 198 184
3 183 199 181
3 22 202 192
3 191 203 62
3 193 201 18
3 190 200 42
3 67 200 177
3 58 201 174
3 176 202 63
3 38 203 175
3 184 197 194
3 192 202 176
3 175 203 191
3 177 200 190
3 174 201 193
3 212 204 224
3 205 223 226
3 204 212 232
3 223 205 233
3 219 206 228
3 206 219 229
3 219 208 229
3 208 219 230
3 206 225 231
3 228 206 231
3 211 212 224
3 223 209 226
3 218 222 232
3 221 217 233
3 217 221 230
3 222 218 231
3 222 204 232
3 205 221 233
3 47 46 211
3 211 207 212
3 212 207 213
3 46 207 211
3 213 220 223
3 59 60 222
3 210 59 222
3 220 209 223
3 214 213 215
3 25 26 206
3 51 50 205
3 213 207 220
3 214 216 218
3 216 215 217
3 44 43 209
3 44 209 220
3 50 49 221
3 58 59 210
3 212 213 214
3 215 213 223
3 214 215 216
3 216 217 219
3 23 24 208
3 46 45 207
3 205 50 221
3 60 61 204
3 45 44 220
3 60 204 222
3 207 45 220
3 210 222 231
3 61 62 224
3 26 27 225
3 52 51 226
3 49 48 227
3 221 227 230
3 25 206 229
3 216 219 228
3 208 24 229
3 204 61 224
3 51 205 226
3 206 26 225
3 221 49 227
3 212 214 232
3 215 223 233
3 7 47 234
3 62 7 234
3 1 23 235
3 48 1 235
3 27 3 237
3 5 52 236
3 3 58 237
3 43 5 236
3 218 216 228
3 24 25 229
3 225 210 231
3 219 217 230
3 227 208 230
3 214 218 232
3 217 215 233
3 225 27 237
3 52 226 236
3 227 48 235
3 224 62 234
3 47 211 234
3 23 208 235
3 58 210 237
3 209 43 236
3 218 228 231
3 226 209 236
3 210 225 237
3 211 224 234
3 208 227 235
3 246 258 238
3 239 260 257
3 238 266 246
3 257 267 239
3 253 262 240
3 240 263 253
3 253 263 242
3 242 264 253
3 240 265 259
3 262 265 240
3 245 258 246
3 257 260 243
3 252 266 256
3 255 267 251
3 251 264 255
3 256 265 252
3 256 266 238
3 239 267 255
3 37 245 36
3 245 246 241
3 246 247 241
3 36 245 241
3 247 257 254
3 254 257 243
3 15 240 16
3 56 239 55
3 65 256 238
3 247 254 241
3 248 249 247
3 34 243 33
3 34 254 243
3 246 248 247
3 249 257 247
3 250 251 249
3 13 242 14
3 36 241 35
3 55 255 54
3 239 255 55
3 63 244 64
3 65 238 66
3 248 250 249
3 248 252 250
3 250 253 251
3 35 254 34
3 241 254 35
3 64 256 65
3 244 256 64
3 244 265 256
3 66 258 67
3 16 259 17
3 57 260 56
3 54 261 53
3 255 264 261
3 15 263 240
3 250 262 253
3 242 263 14
3 238 258 66
3 56 260 239
3 240 259 16
3 255 261 54
3 246 266 248
3 249 267 257
3 6 268 37
3 67 268 6
3 0 269 13
3 53 269 0
3 4 270 57
3 17 271 2
3 2 271 63
3 33 270 4
3 14 263 15
3 252 262 250
3 259 265 244
3 253 264 251
3 261 264 242
3 248 266 252
3 251 267 249
3 57 270 260
3 259 271 17
3 261 269 53
3 258 268 67
3 13 269 242
3 37 268 245
3 243 270 33
3 63 271 244
3 252 265 262
3 260 270 243
3 244 271 259
3 245 268 258
3 242 269 261

CELL_TYPES 620
1
1
1
1
1
1
1
1
3
3
3
3
3
3
3
3
3
3
3
3
3
3
3
3
3
3
3
3
3
3
3
3
3
3
3
3
3
3
3
3
3
3
3
3
3
3
3
3
3
3
3
3
3
3
3
3
3
3
3
3
3
3
3
3
3
3
3
3
3
3
3
3
3
3
3
3
3
3
3
3
5
5
5
5
5
5
5
5
5
5
5
5
5
5
5
5
5
5
5
5
5
5
5
5
5
5
5
5
5
5
5
5
5
5
5
5
5
5
5
5
5
5
5
5
5
5
5
5
5
5
5
5
5
5
5
5
5
5
5
5
5
5
5
5
5
5
5
5
5
5
5
5
5
5
5
5
5
5
5
5
5
5
5
5
5
5
5
5
5
5
5
5
5
5
5
5
5
5
5
5
5
5
5
5
5
5
5
5
5
5
5
5
5
5
5
5
5
5
5
5
5
5
5
5
5
5
5
5
5
5
5
5
5
5
5
5
5
5
5
5
5
5
5
5
5
5
5
5
5
5
5
5
5
5
5
5
5
5
5
5
5
5
5
5
5
5
5
5
5
5
5
5
5
5
5
5
5
5
5
5
5
5
5
5
5
5
5
5
5
5
5
5
5
5
5
5
5
5
5
5
5
5
5
5
5
5
5
5
5
5
5
5
5
5
5
5
5
5
5
5
5
5
5
5
5
5
5
5
5
5
5
5
5
5
5
5
5
5
5
5
5
5
5
5
5
5
5
5
5
5
5
5
5
5
5
5
5
5
5
5
5
5
5
5
5
5
5
5
5
5
5
5
5
5
5
5
5
5
5
5
5
5
5
5
5
5
5
5
5
5
5
5
5
5
5
5
5
5
5
5
5
5
5
5
5
5
5
5
5
5
5
5
5
5
5
5
5
5
5
5
5
5
5
5
5
5
5
5
5
5
5
5
5
5
5
5
5
5
5
5
5
5
5
5
5
5
5
5
5
5
5
5
5
5
5
5
5
5
5
5
5
5
5
5
5
5
5
5
5
5
5
5
5
5
5
5
5
5
5
5
5
5
5
5
5
5
5
5
5
5
5
5
5
5
5
5
5
5
5
5
5
5
5
5
5
5
5
5
5
5
5
5
5
5
5
5
5
5
5
5
5
5
5
5
5
5
5
5
5
5
5
5
5
5
5
5
5
5
5
5
5
5
5
5
5
5
5
5
5
5
5
5
5
5
5
5
5
5
5
5
5
5
5
5
5
5
5
5
5
5
5
5
5
5
5
5
5
5
5
5
5
5
5
5
5
5
5
5
5
5
5
5
5
5
5
5
5
5
5
5
5
5
5
5
5
5
5
5
5
5
5
5
5
5
5
5
5
5
5
5
5
5
5
5
5
5
5
5
5
5
5
5
5
5
5
5
5
5
5
5
