# vtk DataFile Version 2.0
sphere, Created by Gmsh 4.14.1 
ASCII
DATASET UNSTRUCTURED_GRID
POINTS 162 double
6.123233995736766e-17 -1.499759782661858e-32 1
6.123233995736766e-17 -1.499759782661858e-32 -1
0.3090169943749472 -7.568733460868295e-17 -0.9510565162951536
0.5877852522924729 -1.439658655611993e-16 -0.8090169943749476
0.8090169943749473 -1.981520145234183e-16 -0.5877852522924734
0.9510565162951535 -2.329416636978185e-16 -0.3090169943749476
1 -2.449293598294706e-16 -2.449293598294706e-16
0.9510565162951536 -2.329416636978185e-16 0.3090169943749472
0.8090169943749476 -1.981520145234184e-16 0.5877852522924729
0.5877852522924734 -1.439658655611994e-16 0.8090169943749472
0.3090169943749477 -7.568733460868307e-17 0.9510565162951535
0.3569270192488653 0.280553875011349 -0.8910065241883678
0.4371529102920968 0.2734329305187583 0.8568148957219838
0.9509980539041696 -0.26748511456887 -0.1550948579243063
0.7010326263701239 -0.2642085807282115 0.6623798627933902
0.455723059211972 -0.2804055822079273 -0.8448012800470385
0.8579604780797957 0.2698172279020973 0.4371526982420629
0.8579604780797949 0.2698172279020994 -0.4371526982420629
0.1506325540503649 -0.2698172279019947 0.9510565162951921
0.6808812905078324 0.2698172279020885 0.6808812905078397
0.6212581076243343 0.2996097381118904 -0.724066549800193
0.9503583486325039 -0.2696663821281751 0.1552386921305423
0.852583363144894 -0.5225860288129365 -0.002334818636738826
0.8168856169729819 -0.4993851513833301 -0.2886388043221479
0.8103653224198305 -0.503757925427858 0.2992256619810953
0.6692191928879875 -0.7291939860450101 0.1429048725066445
0.598232868938023 -0.6710480447953692 0.4379634186761429
0.1396663028336859 -0.2630486925403432 -0.9546196673050399
0.4514631740141711 -0.2764825965481388 0.8483739601820941
0.2656805088149847 -0.5189327480995084 0.8124793352361049
0.9562426915941572 0.2605200766244171 0.1331510587579743
0.8205353904539959 0.5142067451245198 0.2496259126792635
0.4315330339435516 0.5487851291736286 -0.7159707554176757
0.422743370398015 -0.8638491071672689 0.2739575931249925
0.2533321381291598 -0.5194986426167723 -0.8160539125022559
0.4746165702604443 0.5196832012319649 0.7104002263453397
0.1794310196242874 0.4693963227069368 0.86456439981403
0.4549014889623817 -0.8896283518779411 -0.04032407314181261
0.5334972857945518 -0.50646669138899 -0.6774010160631115
0.3299386131026945 -0.73041111835266 -0.5980301913538203
0.8702062666223009 0.4902724104444173 -0.04872388621916177
0.6985731805597849 0.7142697866770319 0.04259323001291784
0.2296843115287244 0.7082599887008079 0.6675424371851632
0.7069936913703736 0.6602762528044179 -0.2533676979116501
0.5046140344474414 0.8477531853187149 -0.1633377268748685
0.4459016531317896 0.8671684464372168 0.2217895426705262
0.1957393008348495 -0.9778799588436227 0.07373542025837339
0.1329484054053207 -0.916355680689009 0.3776466443239838
-0.04078294352825544 -0.5000378079804607 0.8650427400465639
-0.15879096852963 -0.2269691626539187 0.9608696204572195
-0.06278227295493724 0.6521448166384468 0.7554902542946654
-0.00810393003187752 0.8557402770446654 0.51734215424761
-0.3039279940705278 0.7442868971468833 0.5946972247755407
-0.1005857430240445 -0.9805320120393189 0.1686400950735794
-0.2503121699490721 0.908734499852111 0.3339841708134093
-0.5249866990376768 0.7644318034931047 0.3742098123269926
-0.451923384210324 0.8869049507643477 0.09573329156347811
-0.3496351647243791 -0.4195763861086932 0.837681865512275
0.03514175063573569 -0.7120882946113578 -0.7012098958512665
-0.5578090220966424 0.5621381566949253 0.6106142707595517
-0.7517046929582519 0.5490049396020039 0.3654225374510175
-0.7516770591270082 0.3188376499659227 0.5773423176473208
-0.9078594242555867 0.2839340396968504 0.3085007729191973
-0.8729743723417194 0.4810256495227656 0.08080884689056389
-0.9781767908615764 0.2072992377015008 0.01404250220312235
-0.8971795561961635 0.3901597641193665 -0.2069884112842441
-0.9548315645414797 0.1004649748246536 -0.2796488372740923
-0.8206862560040665 0.2795690009485129 -0.4983123949037173
-0.9944324272272498 -0.09795994042506151 -0.03883294671846237
-0.9222459365616031 -0.2071687888868163 -0.3264100571471125
0.1834719611680489 0.5010291323794295 -0.8457587409966664
-0.91361990091357 -0.3989235422328132 -0.07847728401966718
-0.7955325746014654 -0.491919372526284 -0.3537559238815811
-0.7611350028438447 -0.2826413132177686 -0.5837699851040953
-0.9376616866552163 -0.2782070648190273 0.2083060019866838
-0.8105616108825711 -0.5611756084770717 0.1675464455422431
-0.7138470175755108 0.5780614864020698 -0.3953066574662993
-0.6051533012954253 0.4204977029517604 -0.6759964228777703
-0.464381110892345 0.6786288794782291 -0.5690457167789902
0.187744332960441 0.7341600275606418 -0.6525037313099418
-0.170160273810633 0.9844745574140953 0.04307350718262503
-0.5249321356083021 0.3098710149269832 0.7927333770655985
-0.5953716525426768 -0.5479615533534469 -0.5875974228969013
-0.594877514188219 -0.7311535435343811 -0.3339689190484099
-0.5390479091791859 -0.3243867630844817 -0.7773034025045307
-0.05203709193073147 -0.9844854839200967 -0.1675722919041382
-0.6990561222536325 0.04743990203771749 0.7134914110445664
-0.1709321209591989 -0.8735796289437008 0.4556762468233074
-0.7974897652646343 -0.40179822888088 0.4500758353503843
-0.3862300653530197 -0.89283108567554 0.2316872656596351
-0.4483350138760719 -0.7375533246169034 0.504985948991945
-0.3297241885467167 0.5091986240689419 -0.7949834719876292
-0.5006088199586554 0.2260636929674353 -0.8356350974567355
-0.1143414601892869 0.3765549448176346 0.9193108310115626
-0.3640768444247163 0.913822013626956 -0.1799371522629957
-0.07438705466455738 0.9677528189890057 -0.2406679194183654
-0.3648584408113792 -0.7551083151164548 -0.5446923449165393
0.4869006321121223 0.7190276434148181 0.4959102967817355
-0.1521295446889732 0.2979596432036982 -0.9423781898233058
-0.2544190872670963 0.003318804331989 -0.9670883690604409
-0.4574608311337776 0.0401669218928546 0.8883221298403224
0.0516277918362656 -0.7587722997293163 0.6493066827575362
0.4718555144772147 0.7467039305053171 -0.4688129836356429
-0.6603962997927846 -0.03746342128023285 -0.7499821459781415
-0.8755766085628752 -0.1265053019308967 0.4662209895756583
-0.6181791088052653 0.7728275785374289 -0.1434995584965406
-0.1690313656792332 0.7375323982092608 -0.6538152330806539
0.1200196207970378 -0.8918575867551478 -0.4361024370156846
0.1687644519228683 0.9855263372163161 0.01601244578962878
-0.3483879170786426 -0.8995293935105307 -0.2635767998974522
-0.5764928164425405 -0.8170915372428322 -0.004177601739353279
0.1882506182999608 0.9293683913062559 0.3175470011675505
0.6134454888565066 -0.6587663452922025 -0.4355588760569071
0.2249597314763762 0.9120228571100949 -0.3429393930752429
-0.5648047232459186 -0.211947569462445 0.7975423828224198
-0.5794573587738802 -0.4650165308383589 0.6693196511457409
-0.2366091774971595 -0.6737428098760514 0.7000619424482668
0.8527104539816096 -0.2459350607989367 0.4608696426759963
0.6960448696791576 -0.2371008564340738 -0.6777202396797318
0.7383552949632732 -0.4356623338363973 -0.5148104401388159
0.697215731933302 0.528195284600135 -0.4846647959888281
0.347292924577951 -0.7337483028081991 0.5839529541531415
0.6950102695017686 0.5301053528082009 0.4857458596953471
0.6829752857073232 -0.715076601189415 -0.1490309147270943
0.4146754880735916 -0.8482261971288863 -0.3294792225546194
0.6438850005135907 0.6994383846715863 0.3101581083280196
-0.2972541114780262 0.5256842530929837 0.7970546149790998
0.2379496082268837 -0.9521921223690977 -0.1915989197331388
-0.7701004523871432 -0.6262692692633418 -0.1213758444233334
-0.04870127384665747 -0.4702806835042469 -0.8811720970664535
-0.333027877417141 -0.561448175930054 -0.7575410078720812
-0.9689297499821217 0.02104148294224706 0.246439435957751
-0.8468433672549343 0.005714507259743869 -0.5318116731918388
-0.0474635956527019 0.5900070474485387 -0.8060017934525796
-0.698648046173333 0.7071703312001931 0.1086325469111062
0.8661092531030128 -0.2422987088950982 -0.4372025815993196
0.5402416852612598 -0.4857275826755392 0.6871736584985275
-0.5959480054569651 -0.7520023710628734 0.2816707452109313
0.952973978467038 0.2564234474475258 -0.1615165996541267
-0.01462904509434245 0.8776181270754719 -0.4791371558000572
-0.3034152571707645 -0.286217973431629 -0.9088555734552604
-0.3017858446842516 -0.9533521797647154 -0.006702632772168642
0.09058624877843947 0.1905528950128461 0.9774884785686602
-0.1973201026088888 0.08799498112396975 0.9763819234313025
-0.2878703617800115 0.8529298840108065 -0.4354782058495666
0.1498181364214778 0.3047344838543296 -0.9405803635783765
-0.7314557619932118 -0.2478245862327183 0.6352601378219098
-0.1375827891332612 -0.8707453819315423 -0.472094753179068
-0.3433904648122909 0.2222815344623102 0.9125096756271024
0.7251853405213528 -0.4530639739871885 0.5184971141364876
-0.4601950358024465 -0.1083766469907535 -0.8811782063861013
-0.0502277688492161 -0.2892680239368302 -0.9559294856651881
-0.7104189493493918 0.185999857711942 -0.6787554562111775
-0.8606326124626711 0.126065665070423 0.4933750646881433
-0.7897543446414336 0.6004310913334058 -0.1255809686224593
-0.5070504041559976 0.7824991382674807 -0.3613792831027943
-0.6438413033196665 -0.6022989413136882 0.4719156295695699
-0.03553269700960979 0.9642933100142028 0.2624420692363857
0.8430492816075711 0.4544336531682182 -0.2876768389167708
0.2860415446647244 0.8284628000356713 0.4814868883810584
-0.1824585577315883 -0.7135091380548475 -0.6764714218817651
-0.3917812796843448 -0.2012538866168795 0.8977774234243683

CELLS 332 1314
1 0
1 1
2 1 2
2 2 3
2 3 4
2 4 5
2 5 6
2 6 7
2 7 8
2 8 9
2 9 10
2 10 0
3 75 128 110
3 110 137 75
3 90 116 115
3 44 113 108
3 33 121 47
3 44 108 45
3 115 116 57
3 99 145 1
3 4 20 17
3 45 159 97
3 70 145 98
3 26 121 33
3 48 101 29
3 37 124 123
3 11 145 70
3 43 102 44
3 123 124 112
3 97 125 45
3 3 20 4
3 79 133 106
3 19 35 12
3 111 159 45
3 11 20 3
3 79 113 102
3 20 120 17
3 47 121 101
3 108 111 45
3 9 19 12
3 2 11 3
3 43 120 102
3 85 147 107
3 87 116 90
3 98 145 99
3 108 113 95
3 102 113 44
3 109 147 85
3 79 139 113
3 139 144 95
3 98 133 70
3 104 146 86
3 92 150 103
3 75 156 88
3 48 116 101
3 101 116 87
3 89 137 110
3 137 156 75
3 95 144 94
3 101 121 29
3 35 36 12
3 107 127 85
3 130 140 129
3 81 126 59
3 105 155 76
3 23 123 112
3 7 117 21
3 76 154 105
3 26 136 121
3 36 142 12
3 35 42 36
3 107 147 58
3 21 117 24
3 86 153 104
3 35 97 42
3 42 50 36
3 6 13 5
3 11 32 20
3 50 93 36
3 42 51 50
3 11 70 32
3 51 52 50
3 70 79 32
3 51 54 52
3 79 102 32
3 54 55 52
3 55 59 52
3 54 56 55
3 54 80 56
3 55 60 59
3 80 94 56
3 60 61 59
3 80 95 94
3 94 105 56
3 61 81 59
3 60 62 61
3 60 63 62
3 80 108 95
3 61 86 81
3 63 64 62
3 86 100 81
3 63 65 64
3 15 27 2
3 65 66 64
3 3 15 2
3 78 91 77
3 15 34 27
3 65 67 66
3 66 68 64
3 76 77 67
3 91 92 77
3 65 76 67
3 76 78 77
3 38 39 34
3 39 58 34
3 78 106 91
3 73 82 72
3 15 38 34
3 66 69 68
3 71 74 68
3 69 73 72
3 91 98 92
3 58 129 34
3 9 28 14
3 39 107 58
3 9 14 8
3 106 133 91
3 69 71 68
3 84 130 82
3 73 103 84
3 98 99 92
3 69 72 71
3 4 17 5
3 7 21 6
3 7 16 8
3 8 19 9
3 0 18 10
3 73 84 82
3 109 110 83
3 96 109 83
3 88 104 74
3 82 83 72
3 71 75 74
3 82 96 83
3 75 88 74
3 87 90 89
3 47 101 87
3 87 89 53
3 47 87 53
3 53 85 46
3 47 53 46
3 33 47 46
3 33 46 37
3 33 37 25
3 44 45 41
3 26 33 25
3 43 44 41
3 24 26 25
3 40 43 41
3 49 57 48
3 24 25 22
3 40 41 31
3 15 118 38
3 18 49 48
3 21 24 22
3 22 23 13
3 6 21 13
3 103 152 92
3 30 40 31
3 31 122 16
3 59 126 52
3 18 48 29
3 21 22 13
3 102 120 32
3 106 139 79
3 85 141 109
3 2 27 1
3 10 28 9
3 16 19 8
3 129 160 130
3 23 135 13
3 69 132 73
3 30 31 16
3 45 125 41
3 140 151 129
3 99 151 140
3 29 136 28
3 99 150 92
3 34 129 27
3 82 130 96
3 91 133 98
3 147 160 58
3 7 30 16
3 58 160 129
3 74 131 68
3 93 142 36
3 86 114 100
3 19 122 35
3 66 132 69
3 73 132 103
3 85 127 46
3 41 125 31
3 6 30 7
3 32 120 20
3 0 49 18
3 18 29 28
3 18 28 10
3 22 123 23
3 68 131 64
3 104 131 74
3 13 135 5
3 25 123 22
3 105 134 56
3 46 127 37
3 8 117 7
3 56 134 55
3 17 138 5
3 110 128 83
3 115 156 90
3 37 123 25
3 16 122 19
3 3 118 15
3 70 133 79
3 121 136 29
3 71 128 75
3 83 128 72
3 80 157 108
3 81 148 126
3 108 157 111
3 113 139 95
3 9 12 10
3 72 128 71
3 93 143 142
3 88 146 104
3 55 134 60
3 30 138 40
3 38 112 39
3 84 140 130
3 120 158 17
3 60 134 63
3 35 122 97
3 114 115 57
3 64 131 62
3 31 125 122
3 2 145 11
3 28 136 14
3 126 148 93
3 112 119 23
3 67 132 66
3 39 124 107
3 53 141 85
3 143 161 49
3 6 138 30
3 52 126 50
3 92 152 77
3 5 135 4
3 37 127 124
3 14 117 8
3 110 141 89
3 5 138 6
3 90 137 89
3 65 154 76
3 4 118 3
3 76 155 78
3 38 119 112
3 57 116 48
3 118 119 38
3 100 161 143
3 12 142 10
3 104 153 131
3 43 158 120
3 109 141 110
3 131 153 62
3 115 146 88
3 42 159 51
3 51 159 111
3 89 141 53
3 24 149 26
3 51 157 54
3 50 126 93
3 96 147 109
3 4 135 118
3 105 154 134
3 61 153 86
3 77 152 67
3 134 154 63
3 111 157 51
3 106 144 139
3 57 161 114
3 0 143 49
3 78 144 106
3 10 142 0
3 26 149 136
3 94 155 105
3 17 158 138
3 86 146 114
3 112 124 39
3 27 151 1
3 103 150 84
3 63 154 65
3 117 149 24
3 67 152 132
3 54 157 80
3 62 153 61
3 40 158 43
3 118 135 119
3 138 158 40
3 88 156 115
3 93 148 143
3 114 161 100
3 97 159 42
3 1 145 2
3 100 148 81
3 49 161 57
3 124 127 107
3 132 152 103
3 119 135 23
3 1 151 99
3 140 150 99
3 129 151 27
3 142 143 0
3 122 125 97
3 96 160 147
3 144 155 94
3 14 149 117
3 130 160 96
3 90 156 137
3 114 146 115
3 84 150 140
3 78 155 144
3 136 149 14
3 143 148 100

CELL_TYPES 332
1
1
3
3
3
3
3
3
3
3
3
3
5
5
5
5
5
5
5
5
5
5
5
5
5
5
5
5
5
5
5
5
5
5
5
5
5
5
5
5
5
5
5
5
5
5
5
5
5
5
5
5
5
5
5
5
5
5
5
5
5
5
5
5
5
5
5
5
5
5
5
5
5
5
5
5
5
5
5
5
5
5
5
5
5
5
5
5
5
5
5
5
5
5
5
5
5
5
5
5
5
5
5
5
5
5
5
5
5
5
5
5
5
5
5
5
5
5
5
5
5
5
5
5
5
5
5
5
5
5
5
5
5
5
5
5
5
5
5
5
5
5
5
5
5
5
5
5
5
5
5
5
5
5
5
5
5
5
5
5
5
5
5
5
5
5
5
5
5
5
5
5
5
5
5
5
5
5
5
5
5
5
5
5
5
5
5
5
5
5
5
5
5
5
5
5
5
5
5
5
5
5
5
5
5
5
5
5
5
5
5
5
5
5
5
5
5
5
5
5
5
5
5
5
5
5
5
5
5
5
5
5
5
5
5
5
5
5
5
5
5
5
5
5
5
5
5
5
5
5
5
5
5
5
5
5
5
5
5
5
5
5
5
5
5
5
5
5
5
5
5
5
5
5
5
5
5
5
5
5
5
5
5
5
5
5
5
5
5
5
5
5
5
5
5
5
5
5
5
5
5
5
5
5
5
5
5
5
5
5
5
5
5
5
5
5
5
5
5
5
5
5
5
5
5
5
5
5
5
5
5
5
